<?xml version="1.0" encoding="UTF-8"?>
<svg xmlns="http://www.w3.org/2000/svg" xmlns:xlink="http://www.w3.org/1999/xlink" width="96" height="96" viewBox="0 0 96 96">
  <defs>
    <clipPath id="clip-Siegel_Software-Hosted_96px">
      <rect width="96" height="96"></rect>
    </clipPath>
  </defs>
  <g id="Siegel_Software-Hosted_96px" clip-path="url(#clip-Siegel_Software-Hosted_96px)">
    <g id="Logo_Software_hosted_2" transform="translate(-894.315 -803.652)">
      <g id="inSign-made-and-hosted-in-germany_-1" transform="translate(898.315 807.652)">
        <path id="Pfad_4727" data-name="Pfad 4727" d="M40.93,98.06a17.019,17.019,0,0,1-2.387-.225l.281-2.331c.74.1,1.507.169,2.247.215Zm9.624-.393L50.2,95.346c.749-.112,1.5-.243,2.256-.4l.468,2.256a22.536,22.536,0,0,1-2.369.467Zm-21.4-2.022c-.749-.272-1.507-.571-2.247-.87l.936-2.162c.7.292,1.423.562,2.125.824Zm32.831-1.387-.936-2.125c.693-.318,1.376-.657,2.041-1.011l1.123,2.088c-.7.375-1.423.721-2.162,1.049ZM18.517,90.1c-.637-.468-1.292-.936-1.919-1.441l1.414-1.807c.6.468,1.217.936,1.872,1.367Zm53.661-2.256-1.507-1.788c.59-.487,1.123-.992,1.713-1.507l1.573,1.713a19,19,0,0,1-1.779,1.58Zm-62.423-5.9c-.5-.618-.992-1.264-1.47-1.872l1.872-1.376c.459.608.936,1.217,1.4,1.8ZM80.24,79.01l-1.872-1.3c.421-.618.843-1.264,1.226-1.872l2,1.226c-.467.646-.906,1.282-1.358,1.946Zm-76.767-7.3c-.318-.73-.618-1.479-.936-2.256l2.2-.749c.253.7.534,1.414.843,2.1Zm82.152-3.38-2.247-.758c.234-.721.468-1.451.665-2.181l2.247.627a19.175,19.175,0,0,1-.665,2.275ZM.262,60.164c-.1-.784-.2-1.6-.262-2.415l2.331-.187c.066.749.15,1.507.243,2.247ZM87.891,56.5l-2.321-.122c0-.758.066-1.517.066-2.256H88c0,.814-.066,1.591-.112,2.378ZM2.565,48.49.243,48.172c.1-.786.243-1.582.384-2.378l2.256.438C2.808,46.983,2.668,47.731,2.565,48.49ZM84.6,44.951c-.159-.73-.346-1.47-.552-2.247l2.247-.637c.215.767.421,1.554.59,2.331ZM5.617,37.546,3.473,36.61c.309-.74.665-1.47,1.022-2.181l2.059,1.049a20.84,20.84,0,0,0-.938,2.069Zm75.034-3.2c-.356-.665-.74-1.329-1.133-1.975l1.994-1.226c.421.693.824,1.387,1.2,2.088ZM11.506,27.838,9.68,26.368c.505-.627,1.039-1.245,1.563-1.872L13,26.069q-.77.9-1.49,1.769Zm62.452-2.678c-.524-.543-1.133-1.123-1.629-1.6l1.629-1.713c.581.543,1.133,1.133,1.713,1.685ZM19.789,20.068l-1.356-1.873c.657-.459,1.329-.936,2-1.339l1.245,1.975C21.026,19.217,20.4,19.628,19.789,20.068Zm45.218-1.946c-.657-.384-1.329-.749-1.994-1.123l1.133-2.069c.7.356,1.414.749,2.1,1.123Zm-35.154-3.3-.786-2.254c.758-.272,1.526-.515,2.256-.749l.665,2.247c-.692.259-1.422.493-2.134.755ZM54.522,13.75c-.73-.2-1.479-.375-2.247-.524l.459-2.247c.786.159,1.582.337,2.34.543ZM41.013,12.5l-.193-2.351c.843,0,1.591-.084,2.4-.093V12.4a16.411,16.411,0,0,0-2.247.1Z" transform="translate(0 -10.06)" fill="#343434"></path>
        <path id="Pfad_4728" data-name="Pfad 4728" d="M94.717,45.994A3.614,3.614,0,1,1,91.1,42.38h.045a3.6,3.6,0,0,1,3.566,3.614" transform="translate(-5.584 -12.123)" fill="#e52a21"></path>
        <path id="Pfad_4729" data-name="Pfad 4729" d="M95.717,57.884A3.614,3.614,0,1,1,92.1,54.27h0a3.614,3.614,0,0,1,3.614,3.614h0" transform="translate(-5.648 -12.882)" fill="#ffcc1b"></path>
        <path id="Pfad_4730" data-name="Pfad 4730" d="M20.338,37.847a4.194,4.194,0,0,0,1.236.721A4.559,4.559,0,0,0,23,38.783a3.061,3.061,0,0,0,2.118-.749,2.443,2.443,0,0,0,.8-1.872,2.809,2.809,0,0,0-.608-1.872,6.778,6.778,0,0,0-1.685-1.32,12.85,12.85,0,0,1-1.423-.936,1.264,1.264,0,0,1-.515-.992,1,1,0,0,1,.4-.833,1.723,1.723,0,0,1,1.123-.3,2.629,2.629,0,0,1,1.133.253,5.55,5.55,0,0,1,1.123.74v-1.65a5.038,5.038,0,0,0-1.123-.505,3.857,3.857,0,0,0-1.133-.169,3.052,3.052,0,0,0-2.088.767,2.5,2.5,0,0,0-.8,1.872,2.294,2.294,0,0,0,.646,1.666,10.522,10.522,0,0,0,1.869,1.406,7.489,7.489,0,0,1,1.226.936,1.348,1.348,0,0,1,.41,1,1.123,1.123,0,0,1-.412.936,1.872,1.872,0,0,1-1.123.346,2.629,2.629,0,0,1-1.376-.384A4.915,4.915,0,0,1,20.308,36Z" transform="translate(-1.296 -11.241)" fill="#343434"></path>
        <path id="Pfad_4731" data-name="Pfad 4731" d="M27.19,35.575a3.417,3.417,0,0,0,1,2.406,3.505,3.505,0,0,0,2.453.936,3.3,3.3,0,0,0,1.311-.243,3.351,3.351,0,0,0,1.123-.74,3.3,3.3,0,0,0,.767-3.688,3.426,3.426,0,0,0-.767-1.123,3.632,3.632,0,0,0-1.123-.749,3.578,3.578,0,0,0-3.745.73,3.417,3.417,0,0,0-1,2.406Zm1.358,0a2.144,2.144,0,0,1,.621-1.495,2.059,2.059,0,0,1,2.921-.047h0v.047a2.247,2.247,0,0,1,0,3.052,2.032,2.032,0,0,1-1.47.627,1.994,1.994,0,0,1-1.479-.618,2.153,2.153,0,0,1-.618-1.544Z" transform="translate(-1.735 -11.469)" fill="#343434"></path>
        <path id="Pfad_4732" data-name="Pfad 4732" d="M37.4,38.625V33.242h.881V32.118h-.872v-.8a1.966,1.966,0,0,1,.225-1.123.936.936,0,0,1,.852-.356,3.505,3.505,0,0,1,.824.122V28.842l-.552-.112a3.745,3.745,0,0,0-.459,0,2.359,2.359,0,0,0-1.133.253,2.107,2.107,0,0,0-.777.711,2.032,2.032,0,0,0-.272.833,9.974,9.974,0,0,0,0,1.058v.59H35.27V33.3h.777v5.383Z" transform="translate(-2.251 -11.251)" fill="#343434"></path>
        <path id="Pfad_4733" data-name="Pfad 4733" d="M43.295,38.547v-1.18a2.181,2.181,0,0,1-1.133.318c-.4,0-.674-.093-.786-.3a1.872,1.872,0,0,1-.159-.992V33.37h2.032V32.247H41.215V30.73h-.139L38.82,33.249v.122h1.1v3.08a3.108,3.108,0,0,0,.412,1.872,1.8,1.8,0,0,0,1.582.571,3.989,3.989,0,0,0,.749-.073,2.264,2.264,0,0,0,.646-.253Z" transform="translate(-2.478 -11.379)" fill="#343434"></path>
        <path id="Pfad_4734" data-name="Pfad 4734" d="M46.554,36.788h.637l1.929-4.709,1.938,4.709h.627l2.9-6.628H53.219l-1.86,4.3-1.826-4.3h-.846L46.9,34.468,45.047,30.16H43.67Z" transform="translate(-2.788 -9.293)" fill="#343434"></path>
        <path id="Pfad_4735" data-name="Pfad 4735" d="M59.283,38.3a.8.8,0,0,0,.215.505.936.936,0,0,0,.562.15,1.872,1.872,0,0,0,.74-.15,2.331,2.331,0,0,0,.721-.449v-.786a2,2,0,0,1-.365.262.627.627,0,0,1-.318.093.187.187,0,0,1-.2-.15,1.4,1.4,0,0,1-.056-.478V34.542a2.4,2.4,0,0,0-.553-1.757,2.565,2.565,0,0,0-1.872-.571,4.409,4.409,0,0,0-1.311.206,3.379,3.379,0,0,0-1.123.618v1.281a5.3,5.3,0,0,1,1.123-.684,3.08,3.08,0,0,1,1.123-.225,1.387,1.387,0,0,1,.936.262,1.086,1.086,0,0,1,.281.833,1.4,1.4,0,0,1,0,.281l-1.533.515c-1.432.468-2.153,1.123-2.153,2.078a1.488,1.488,0,0,0,.468,1.133,2.069,2.069,0,0,0,1.367.421,2.883,2.883,0,0,0,.936-.15,3.9,3.9,0,0,0,.936-.5Zm0-.786a2.275,2.275,0,0,1-1.329.5,1.161,1.161,0,0,1-.721-.225.8.8,0,0,1-.253-.618,1.011,1.011,0,0,1,.571-.861,6.769,6.769,0,0,1,1.732-.693Z" transform="translate(-3.543 -11.474)" fill="#343434"></path>
        <path id="Pfad_4736" data-name="Pfad 4736" d="M62.68,38.856h1.3V35.214a2.546,2.546,0,0,1,.571-1.236,1.226,1.226,0,0,1,.936-.429,1.554,1.554,0,0,1,.618.131,1.873,1.873,0,0,1,.59.393l.683-1.114a3.586,3.586,0,0,0-.767-.468,1.723,1.723,0,0,0-.721-.159,1.5,1.5,0,0,0-.992.384,4.5,4.5,0,0,0-.936,1.123V32.35H62.68Z" transform="translate(-4.001 -11.482)" fill="#343434"></path>
        <path id="Pfad_4737" data-name="Pfad 4737" d="M69.276,34.9a2.051,2.051,0,0,1,.59-1.133,1.742,1.742,0,0,1,1.2-.4A1.68,1.68,0,0,1,72.2,33.8a1.769,1.769,0,0,1,.478,1.123Zm4.765,3.249v-1.3a5.055,5.055,0,0,1-2.7.936A1.938,1.938,0,0,1,69.276,36v-.169h4.856V35.64a3.688,3.688,0,0,0-.824-2.509,2.94,2.94,0,0,0-2.256-.936,3.09,3.09,0,0,0-2.256.936,3.432,3.432,0,0,0-.936,2.35,3.6,3.6,0,0,0,.936,2.546,3.333,3.333,0,0,0,2.462.936,4.8,4.8,0,0,0,1.414-.178,5.337,5.337,0,0,0,1.339-.637Z" transform="translate(-4.331 -11.474)" fill="#343434"></path>
        <path id="Pfad_4738" data-name="Pfad 4738" d="M90.657,34.444a3.614,3.614,0,1,1-3.614-3.614,3.614,3.614,0,0,1,3.614,3.614h0" transform="translate(-5.325 -11.386)" fill="#010101"></path>
        <path id="Pfad_4739" data-name="Pfad 4739" d="M20,75.085h1.414a7.8,7.8,0,0,0,.936,0,1.872,1.872,0,0,0,.73-.262,1.619,1.619,0,0,0,.534-.534,1.387,1.387,0,0,0,.2-.693,1.517,1.517,0,0,0-.337-1.03A2.069,2.069,0,0,0,22.443,72a1.367,1.367,0,0,0,.852-1.329,1.4,1.4,0,0,0-.487-1.123,2.045,2.045,0,0,0-1.348-.413H20Zm.487-5.617h.889a1.629,1.629,0,0,1,1.011.318,1.086,1.086,0,0,1,.365.852,1.142,1.142,0,0,1-.356.861,1.367,1.367,0,0,1-.937.327h-.936Zm0,2.808H21.61a1.872,1.872,0,0,1,1.179.337,1.1,1.1,0,0,1,.431.936.936.936,0,0,1-.431.936,2.462,2.462,0,0,1-1.255.356h-.983Z" transform="translate(-1.277 -13.831)" fill="#343434"></path>
        <path id="Pfad_4740" data-name="Pfad 4740" d="M27.635,74.589v.625h.438V71.256h-.438v2.808a1.872,1.872,0,0,1-.59.618,1.348,1.348,0,0,1-.684.169A.936.936,0,0,1,25.6,74.5a1.753,1.753,0,0,1-.243-1.058V71.19h-.438v2.537a1.723,1.723,0,0,0,.318,1.123,1.387,1.387,0,0,0,1.03.421,1.606,1.606,0,0,0,.749-.187,1.872,1.872,0,0,0,.618-.515Z" transform="translate(-1.591 -13.962)" fill="#343434"></path>
        <path id="Pfad_4741" data-name="Pfad 4741" d="M29.36,75.214H29.8V72.408a1.807,1.807,0,0,1,.581-.637,1.339,1.339,0,0,1,.73-.2.852.852,0,0,1,.767.346,1.938,1.938,0,0,1,.253,1.067v2.256h.421V72.8a1.872,1.872,0,0,0-.356-1.189,1.315,1.315,0,0,0-1.039-.421,1.544,1.544,0,0,0-.74.178,1.966,1.966,0,0,0-.618.524v-.64H29.36Z" transform="translate(-1.874 -13.963)" fill="#343434"></path>
        <path id="Pfad_4742" data-name="Pfad 4742" d="M36.585,74.784v.3h.459V69.1h-.421v2.3a1.648,1.648,0,0,0-.524-.272,2.022,2.022,0,0,0-.581-.084,1.872,1.872,0,0,0-1.395.562,2.3,2.3,0,0,0,0,2.968,1.872,1.872,0,0,0,1.395.571,2.032,2.032,0,0,0,.581-.093,1.647,1.647,0,0,0,.524-.272Zm0-.478a1.142,1.142,0,0,1-.478.337,1.76,1.76,0,0,1-.581.1,1.387,1.387,0,0,1-1.058-.459,1.872,1.872,0,0,1,0-2.406,1.4,1.4,0,0,1,1.058-.449,1.563,1.563,0,0,1,.581.112,1.314,1.314,0,0,1,.478.337Z" transform="translate(-2.144 -13.829)" fill="#343434"></path>
        <path id="Pfad_4743" data-name="Pfad 4743" d="M38.641,72.722a1.329,1.329,0,0,1,.438-.833,1.168,1.168,0,0,1,.843-.318,1.1,1.1,0,0,1,.8.3,1.4,1.4,0,0,1,.421.852Zm2.952,2.04v-.468a3.127,3.127,0,0,1-.777.468,1.872,1.872,0,0,1-.777.14,1.314,1.314,0,0,1-1.1-.459,1.872,1.872,0,0,1-.421-1.264H41.6a1.929,1.929,0,0,0-.478-1.367,1.629,1.629,0,0,0-1.236-.524,1.753,1.753,0,0,0-1.32.552,2.107,2.107,0,0,0-.515,1.441,2.284,2.284,0,0,0,.608,1.479,1.872,1.872,0,0,0,1.423.571,2.078,2.078,0,0,0,.758-.122,3.81,3.81,0,0,0,.749-.393Z" transform="translate(-2.43 -13.968)" fill="#343434"></path>
        <path id="Pfad_4744" data-name="Pfad 4744" d="M42.536,74.49v.449a2.33,2.33,0,0,0,.552.272,2.41,2.41,0,0,0,.581.073,1.47,1.47,0,0,0,.936-.3,1.058,1.058,0,0,0,.337-.824.936.936,0,0,0-.262-.693,2.219,2.219,0,0,0-.777-.412,2.649,2.649,0,0,1-.74-.337.571.571,0,0,1-.234-.478.562.562,0,0,1,.224-.477.936.936,0,0,1,.571-.2,2.107,2.107,0,0,1,1.114.375v-.487a2.256,2.256,0,0,0-.552-.243,1.657,1.657,0,0,0-.524-.084,1.358,1.358,0,0,0-.936.3,1.049,1.049,0,0,0-.356.786,1.123,1.123,0,0,0,.88,1.123,5.913,5.913,0,0,1,.8.328.584.584,0,0,1,.318.543.664.664,0,0,1-.225.5.936.936,0,0,1-.6.178,1.76,1.76,0,0,1-.581-.1,2.3,2.3,0,0,1-.59-.292Z" transform="translate(-2.711 -13.957)" fill="#343434"></path>
        <path id="Pfad_4745" data-name="Pfad 4745" d="M47.129,73.106h.292l1.685-4.026h-.449l-1.37,3.286L45.856,69.08h-.5Z" transform="translate(-2.895 -11.777)" fill="#343434"></path>
        <path id="Pfad_4746" data-name="Pfad 4746" d="M50.145,72.716a1.277,1.277,0,0,1,2.088-.833,1.4,1.4,0,0,1,.421.852Zm2.949,2.041v-.468a2.809,2.809,0,0,1-.749.431,1.947,1.947,0,0,1-.767.131,1.387,1.387,0,0,1-1.123-.459,1.938,1.938,0,0,1-.431-1.264h3.09a2.012,2.012,0,0,0-.4-1.432,1.685,1.685,0,0,0-1.245-.515,1.753,1.753,0,0,0-1.32.552,2.107,2.107,0,0,0-.515,1.441,2.264,2.264,0,0,0,.543,1.582,1.872,1.872,0,0,0,1.423.571,2.078,2.078,0,0,0,.758-.122,3.808,3.808,0,0,0,.749-.393Z" transform="translate(-3.168 -13.962)" fill="#343434"></path>
        <path id="Pfad_4747" data-name="Pfad 4747" d="M54.339,75.214h.438v-2.5a3.623,3.623,0,0,1,.59-.814.711.711,0,0,1,.861-.206,1.817,1.817,0,0,1,.309.215l.243-.421a1.582,1.582,0,0,0-.337-.215.8.8,0,0,0-.365-.084,1.049,1.049,0,0,0-.657.262,3.432,3.432,0,0,0-.646.777v-.937h-.438Z" transform="translate(-3.468 -13.962)" fill="#343434"></path>
        <path id="Pfad_4748" data-name="Pfad 4748" d="M57.35,74.837a4.58,4.58,0,0,0,.683.243,3.8,3.8,0,0,0,.646.073,2.059,2.059,0,0,0,2.162-1.948h0a.833.833,0,0,0,0-.215,2.125,2.125,0,0,0-.468-1.4,1.62,1.62,0,0,0-1.208-.543,1.994,1.994,0,0,0-.74.14,2.294,2.294,0,0,0-.657.459V69.086H57.35Zm.421-.438V72.15a2.069,2.069,0,0,1,.59-.515,1.236,1.236,0,0,1,.657-.187,1.338,1.338,0,0,1,.936.438,1.872,1.872,0,0,1-.073,2.368,1.591,1.591,0,0,1-1.123.468,1.461,1.461,0,0,1-.936-.309Z" transform="translate(-3.661 -13.827)" fill="#343434"></path>
        <path id="Pfad_4749" data-name="Pfad 4749" d="M63.846,74.849a.711.711,0,0,0,.093.365.393.393,0,0,0,.281.112.627.627,0,0,0,.292-.093,3.246,3.246,0,0,0,.356-.272v-.4l-.262.225a.281.281,0,0,1-.187.073.1.1,0,0,1-.1,0,.628.628,0,0,1,0-.187V72.506a1.507,1.507,0,0,0-.3-1.011,1.282,1.282,0,0,0-.992-.318,1.928,1.928,0,0,0-.608.1,3.145,3.145,0,0,0-.637.328v.421a3.145,3.145,0,0,1,.627-.346,1.376,1.376,0,0,1,.581-.122.88.88,0,0,1,.674.206.8.8,0,0,1,.215.637v.421a3.52,3.52,0,0,0-1.713.421,1.208,1.208,0,0,0-.581,1.03,1.03,1.03,0,0,0,.3.73,1.142,1.142,0,0,0,.786.281,1.77,1.77,0,0,0,.627-.112,2.807,2.807,0,0,0,.581-.356Zm0-.4a2.865,2.865,0,0,1-.571.375,1.1,1.1,0,0,1-.515.131.861.861,0,0,1-.562-.178.59.59,0,0,1-.206-.478.861.861,0,0,1,.478-.8,2.808,2.808,0,0,1,1.376-.328Z" transform="translate(-3.932 -13.96)" fill="#343434"></path>
        <path id="Pfad_4750" data-name="Pfad 4750" d="M65.65,75.214h.468V72.408a1.956,1.956,0,0,1,.571-.637,1.367,1.367,0,0,1,.74-.2.824.824,0,0,1,.758.346,1.872,1.872,0,0,1,.243,1.068v2.256h.438V72.8a1.872,1.872,0,0,0-.356-1.189,1.314,1.314,0,0,0-1.039-.421,1.544,1.544,0,0,0-.74.178,1.966,1.966,0,0,0-.618.524v-.64h-.438Z" transform="translate(-4.19 -13.963)" fill="#343434"></path>
        <path id="Pfad_4751" data-name="Pfad 4751" d="M72.883,74.784v.3H73.3V69.1h-.421v2.3a1.872,1.872,0,0,0-.524-.272,2.088,2.088,0,0,0-.59-.084,1.966,1.966,0,0,0-1.4.562,2.35,2.35,0,0,0,0,2.968,1.938,1.938,0,0,0,1.4.571,2.1,2.1,0,0,0,.59-.093,1.647,1.647,0,0,0,.524-.272Zm0-.478a1.432,1.432,0,0,1-.478.337,1.76,1.76,0,0,1-.581.1,1.423,1.423,0,0,1-1.076-.459,1.956,1.956,0,0,1,0-2.406,1.5,1.5,0,0,1,1.114-.446,1.563,1.563,0,0,1,.581.112,1.7,1.7,0,0,1,.478.337Z" transform="translate(-4.457 -13.829)" fill="#343434"></path>
        <rect id="Rechteck_2500" data-name="Rechteck 2500" width="0.412" height="5.224" transform="translate(18.677 62.864)" fill="#343434"></rect>
        <path id="Pfad_4752" data-name="Pfad 4752" d="M23.068,80.244h.45V75.385h1.948V75.02H21.13v.365h1.938Z" transform="translate(-1.349 -12.156)" fill="#343434"></path>
        <rect id="Rechteck_2501" data-name="Rechteck 2501" width="1.835" height="0.356" transform="translate(24.481 66.178)" fill="#343434"></rect>
        <path id="Pfad_4753" data-name="Pfad 4753" d="M29.07,80.244h.421V75.629l1.966,2.424,1.956-2.424v4.615h.431V75.02h-.438l-1.948,2.406L29.51,75.02h-.438Z" transform="translate(-1.856 -12.156)" fill="#343434"></path>
        <path id="Pfad_4754" data-name="Pfad 4754" d="M35.3,82.434h.384V78.97H35.3Zm0-4.6h.384V77.21H35.3Z" transform="translate(-2.253 -14.346)" fill="#343434"></path>
        <path id="Pfad_4755" data-name="Pfad 4755" d="M37.2,81.628V79.381h.936v-.328H37.2V77.93h-.086l-.3.337v.786H36.08v.328h.73v2.247a1.049,1.049,0,0,0,.169.711.711.711,0,0,0,.608.215,1.348,1.348,0,0,0,.625-.15V82.04l-.3.131h-.272a.393.393,0,0,1-.438-.131,1.022,1.022,0,0,1-.073-.438Z" transform="translate(-2.303 -14.392)" fill="#343434"></path>
        <path id="Pfad_4756" data-name="Pfad 4756" d="M39.273,81.628V79.381h.936v-.328h-.936V77.93h-.093l-.292.337v.786H38.14v.328h.74v2.247a1.114,1.114,0,0,0,.159.711.758.758,0,0,0,.618.215,1.348,1.348,0,0,0,.627-.15V82.04l-.3.131h-.272c-.187,0-.3,0-.356-.131a.936.936,0,0,1-.084-.438Z" transform="translate(-2.434 -14.392)" fill="#343434"></path>
        <path id="Pfad_4757" data-name="Pfad 4757" d="M41.115,80.361a1.292,1.292,0,0,1,.384-.73,1.161,1.161,0,0,1,.749-.281,1.022,1.022,0,0,1,.7.281,1.168,1.168,0,0,1,.365.73ZM43.7,82.168v-.421a2.528,2.528,0,0,1-.657.375,1.657,1.657,0,0,1-.674.122,1.161,1.161,0,0,1-.936-.4,1.638,1.638,0,0,1-.375-1.123h2.735a1.732,1.732,0,0,0-.421-1.208,1.442,1.442,0,0,0-1.067-.449,1.554,1.554,0,0,0-1.123.487,1.807,1.807,0,0,0-.438,1.255,1.872,1.872,0,0,0,.478,1.358,1.694,1.694,0,0,0,1.233.507,2.05,2.05,0,0,0,.665-.131,2.181,2.181,0,0,0,.657-.337Z" transform="translate(-2.601 -14.464)" fill="#343434"></path>
        <rect id="Rechteck_2502" data-name="Rechteck 2502" width="0.393" height="5.224" transform="translate(41.894 62.864)" fill="#343434"></rect>
        <path id="Pfad_4758" data-name="Pfad 4758" d="M45.917,81.912v.412a2.228,2.228,0,0,0,.478.225,1.965,1.965,0,0,0,.524.073,1.273,1.273,0,0,0,.833-.272.88.88,0,0,0,.3-.721.758.758,0,0,0-.225-.6,1.872,1.872,0,0,0-.683-.365,2.238,2.238,0,0,1-.646-.292.534.534,0,0,1-.215-.421.543.543,0,0,1,.2-.412.758.758,0,0,1,.505-.178,1.788,1.788,0,0,1,.936.346V79.3a2.752,2.752,0,0,0-.478-.215,1.948,1.948,0,0,0-.468-.066,1.208,1.208,0,0,0-.786.262.936.936,0,0,0-.3.684,1,1,0,0,0,.769.942c.234.084.468.178.693.281a.5.5,0,0,1,.272.487.543.543,0,0,1-.178.431.852.852,0,0,1-.534.159,1.919,1.919,0,0,1-.515-.093,2.331,2.331,0,0,1-.478-.253Z" transform="translate(-2.929 -14.46)" fill="#343434"></path>
        <path id="Pfad_4759" data-name="Pfad 4759" d="M49.422,81.628V79.381h.936v-.328h-.936V77.93h-.093l-.292.337v.786H48.28v.328h.74v2.247a1.058,1.058,0,0,0,.178.711.683.683,0,0,0,.6.215,1.357,1.357,0,0,0,.637-.15V82.04l-.309.131h-.234a.4.4,0,0,1-.355-.131.8.8,0,0,1-.073-.438Z" transform="translate(-3.081 -14.392)" fill="#343434"></path>
        <path id="Pfad_4760" data-name="Pfad 4760" d="M52.784,82.209a.487.487,0,0,0,.084.3.272.272,0,0,0,.243.1.384.384,0,0,0,.243-.084,1.554,1.554,0,0,0,.318-.234v-.346l-.225.187a.292.292,0,0,1-.169.084.122.122,0,0,1-.093-.056.262.262,0,0,1,0-.169V80.187a1.208,1.208,0,0,0-.262-.936,1.161,1.161,0,0,0-.861-.281,1.732,1.732,0,0,0-.534.093,2.079,2.079,0,0,0-.552.292v.375a2.424,2.424,0,0,1,.543-.318,1.638,1.638,0,0,1,.515-.112.833.833,0,0,1,.59.178.767.767,0,0,1,.178.562v.375a3.2,3.2,0,0,0-1.5.375,1.03,1.03,0,0,0-.506.934.852.852,0,0,0,.272.646,1,1,0,0,0,.683.243,1.517,1.517,0,0,0,.543-.1,2.593,2.593,0,0,0,.515-.309Zm0-.365a2.511,2.511,0,0,1-.487.337,1.068,1.068,0,0,1-.449.112.73.73,0,0,1-.5-.159.5.5,0,0,1-.178-.412.768.768,0,0,1,.412-.674,2.313,2.313,0,0,1,1.2-.281Z" transform="translate(-3.242 -14.458)" fill="#343434"></path>
        <path id="Pfad_4761" data-name="Pfad 4761" d="M54.339,82.548h.384V80.113a1.507,1.507,0,0,1,.505-.552,1.168,1.168,0,0,1,.637-.178.74.74,0,0,1,.665.309,1.563,1.563,0,0,1,.215.936v1.929h.384V80.439a1.507,1.507,0,0,0-.3-1.049A1.123,1.123,0,0,0,55.893,79a1.47,1.47,0,0,0-.657.159,1.647,1.647,0,0,0-.534.449v-.552H54.32Z" transform="translate(-3.467 -14.46)" fill="#343434"></path>
        <path id="Pfad_4762" data-name="Pfad 4762" d="M60.65,82.181v.253h.375V77.21H60.65v2.013a1.544,1.544,0,0,0-.936-.318,1.666,1.666,0,0,0-1.226.5,2.013,2.013,0,0,0,0,2.6,1.638,1.638,0,0,0,1.226.487A1.479,1.479,0,0,0,60.65,82.181Zm0-.431a1.086,1.086,0,0,1-.412.3,1.2,1.2,0,0,1-.515.084,1.179,1.179,0,0,1-.936-.393,1.68,1.68,0,0,1,0-2.106,1.292,1.292,0,0,1,.936-.393,1.367,1.367,0,0,1,.515.1,1.067,1.067,0,0,1,.412.292Z" transform="translate(-3.702 -14.346)" fill="#343434"></path>
        <path id="Pfad_4763" data-name="Pfad 4763" d="M64.438,80.362a1.264,1.264,0,0,1,.438-.73,1.133,1.133,0,0,1,.74-.281,1.022,1.022,0,0,1,.7.281,1.142,1.142,0,0,1,.365.73Zm2.584,1.807v-.421a2.483,2.483,0,0,1-.646.375,1.656,1.656,0,0,1-.674.122,1.161,1.161,0,0,1-.936-.4,1.685,1.685,0,0,1-.365-1.123h2.74a1.723,1.723,0,0,0-.4-1.208,1.47,1.47,0,0,0-1.133-.449,1.533,1.533,0,0,0-1.123.487A1.769,1.769,0,0,0,64,80.8a1.985,1.985,0,0,0,.468,1.357,1.713,1.713,0,0,0,1.246.508,2.05,2.05,0,0,0,.674-.131,1.975,1.975,0,0,0,.637-.337Z" transform="translate(-4.085 -14.465)" fill="#343434"></path>
        <rect id="Rechteck_2503" data-name="Rechteck 2503" width="0.496" height="0.767" transform="translate(63.978 67.32)" fill="#343434"></rect>
        <path id="Pfad_4764" data-name="Pfad 4764" d="M69.39,75.02l2.218,5.308h.066l2.218-5.308h-.449l-1.8,4.372L69.858,75.02Z" transform="translate(-4.429 -12.156)" fill="#343434"></path>
        <rect id="Rechteck_2504" data-name="Rechteck 2504" width="0.496" height="0.767" transform="translate(69.979 67.32)" fill="#343434"></rect>
        <path id="Pfad_4765" data-name="Pfad 4765" d="M18.26,48.689h1.4V44.411h5.673v4.278h1.395V38.85H25.337v4.232H19.664V38.85h-1.4Z" transform="translate(-1.165 -9.847)" fill="#343434"></path>
        <path id="Pfad_4766" data-name="Pfad 4766" d="M28.789,47.846a3.4,3.4,0,0,0,1,2.4,3.539,3.539,0,0,0,3.745.736,3.193,3.193,0,0,0,1.123-.73,3.408,3.408,0,0,0,.758-1.123,3.268,3.268,0,0,0,.272-1.292,3.432,3.432,0,0,0-.262-1.3,3.688,3.688,0,0,0-.767-1.123,3.578,3.578,0,0,0-1.123-.73,3.505,3.505,0,0,0-3.745.73,3.342,3.342,0,0,0-1.011,2.359Zm1.348,0a2.162,2.162,0,0,1,.627-1.526,2.045,2.045,0,0,1,2.874-.093h0l.073.066a2.209,2.209,0,0,1,.618,1.526,2.256,2.256,0,0,1-.618,1.526,2.045,2.045,0,0,1-2.884.073l-.066-.073a2.294,2.294,0,0,1-.627-1.5Z" transform="translate(-1.837 -12.253)" fill="#343434"></path>
        <path id="Pfad_4767" data-name="Pfad 4767" d="M37,50.628a4.681,4.681,0,0,0,2.247.571,2.678,2.678,0,0,0,1.713-.524,1.666,1.666,0,0,0,.627-1.367,1.488,1.488,0,0,0-.438-1.123,5,5,0,0,0-1.339-.8,9.925,9.925,0,0,1-1.1-.543.8.8,0,0,1-.318-.665.487.487,0,0,1,.225-.412,1.236,1.236,0,0,1,.627-.14,2.668,2.668,0,0,1,.936.169,5.617,5.617,0,0,1,1.076.487V44.964a3.979,3.979,0,0,0-1-.393,4.409,4.409,0,0,0-1.049-.131,2.509,2.509,0,0,0-1.62.487,1.742,1.742,0,0,0-.178,2.416,4.194,4.194,0,0,0,1.189.833c.468.225.843.431,1.123.59a.749.749,0,0,1,.421.59.571.571,0,0,1-.292.5,1.451,1.451,0,0,1-.786.2,2.706,2.706,0,0,1-.936-.2,5.149,5.149,0,0,1-1.123-.59Z" transform="translate(-2.362 -12.254)" fill="#343434"></path>
        <path id="Pfad_4768" data-name="Pfad 4768" d="M46.6,50.808V49.553a2.172,2.172,0,0,1-1.123.318c-.412,0-.683-.093-.8-.3a1.872,1.872,0,0,1-.159-.936V45.642H46.6V44.507H44.567V43h-.15L42.17,45.509v.14h1.123v3.08a3.14,3.14,0,0,0,.356,1.816,1.872,1.872,0,0,0,1.591.581,3.884,3.884,0,0,0,.74-.073,2.808,2.808,0,0,0,.657-.262Z" transform="translate(-2.692 -12.163)" fill="#343434"></path>
        <path id="Pfad_4769" data-name="Pfad 4769" d="M48.914,47.147a1.872,1.872,0,0,1,.6-1.123,1.685,1.685,0,0,1,1.2-.4,1.582,1.582,0,0,1,1.133.421,1.872,1.872,0,0,1,.515,1.133ZM53.7,50.414V49.122a5.027,5.027,0,0,1-2.678.936A1.872,1.872,0,0,1,48.961,48.4a.187.187,0,0,1,0-.066V48.1h4.868v-.178A3.578,3.578,0,0,0,53,45.4a2.9,2.9,0,0,0-2.256-.936,3.155,3.155,0,0,0-2.247.936,3.4,3.4,0,0,0-.892,2.373,3.613,3.613,0,0,0,.936,2.537A3.258,3.258,0,0,0,51,51.25a4.83,4.83,0,0,0,1.414-.206,5.5,5.5,0,0,0,1.292-.627Z" transform="translate(-3.038 -12.256)" fill="#343434"></path>
        <path id="Pfad_4770" data-name="Pfad 4770" d="M59.88,50.521v.356h1.3V41h-1.3v3.745a2.387,2.387,0,0,0-.777-.375,3.213,3.213,0,0,0-3.164.8,3.745,3.745,0,0,0,0,4.893A3.033,3.033,0,0,0,58.185,51a3.943,3.943,0,0,0,.936-.112,2.622,2.622,0,0,0,.777-.384Zm0-1.123a2.125,2.125,0,0,1-.646.337,2.3,2.3,0,0,1-.711.112,2.088,2.088,0,0,1-1.563-.562,2.715,2.715,0,0,1,0-3.38,2.294,2.294,0,0,1,2.256-.5,2.809,2.809,0,0,1,.637.337Z" transform="translate(-3.513 -12.035)" fill="#343434"></path>
        <path id="Pfad_4771" data-name="Pfad 4771" d="M67.134,50.925h1.32v-6.5h-1.32ZM67.05,42.5a.74.74,0,0,0,1.264.524.777.777,0,0,0,0-1.049.74.74,0,0,0-1.264.534Z" transform="translate(-4.28 -12.083)" fill="#343434"></path>
        <path id="Pfad_4772" data-name="Pfad 4772" d="M70.26,51.1h1.292V46.422a2.668,2.668,0,0,1,.73-.646,1.872,1.872,0,0,1,.936-.187,1.329,1.329,0,0,1,1.039.375,1.723,1.723,0,0,1,.328,1.123v3.97h1.3V46.844a2.107,2.107,0,0,0-1.873-2.284,2.5,2.5,0,0,0-.375,0,2.527,2.527,0,0,0-1.049.206,3.745,3.745,0,0,0-.936.683v-.8H70.26Z" transform="translate(-4.485 -12.262)" fill="#343434"></path>
        <path id="Pfad_4773" data-name="Pfad 4773" d="M28.034,59.121h-3.3v1.3H26.6V62.3a4.493,4.493,0,0,1-1.039.337,4.166,4.166,0,0,1-1.022.122,3.943,3.943,0,0,1-2.808-1.133,3.745,3.745,0,0,1,0-5.3h0a4.044,4.044,0,0,1,2.892-1.133,5.739,5.739,0,0,1,1.639.243,8.8,8.8,0,0,1,1.723.749V54.749a9.849,9.849,0,0,0-1.694-.6A7.668,7.668,0,0,0,24.627,54a6.422,6.422,0,0,0-2.181.356,5.112,5.112,0,0,0-1.769,1.133,5.055,5.055,0,0,0-1.533,3.558A4.971,4.971,0,0,0,21.511,63.3a4.784,4.784,0,0,0,1.441.657,5.841,5.841,0,0,0,1.657.215,6.815,6.815,0,0,0,1.685-.215,10.382,10.382,0,0,0,1.816-.6Z" transform="translate(-1.222 -12.865)" fill="#343434"></path>
        <path id="Pfad_4774" data-name="Pfad 4774" d="M31.176,60.245a1.872,1.872,0,0,1,.608-1.123,1.807,1.807,0,0,1,2.321,0,1.769,1.769,0,0,1,.515,1.123Zm4.765,3.249V62.2a5.056,5.056,0,0,1-2.687.936,1.929,1.929,0,0,1-2.069-1.788,1.2,1.2,0,0,1,0-.178h4.878v-.187a3.745,3.745,0,0,0-.833-2.509,2.865,2.865,0,0,0-2.256-.936,3.052,3.052,0,0,0-2.3.936,3.22,3.22,0,0,0-.88,2.35,3.642,3.642,0,0,0,.936,2.546,3.258,3.258,0,0,0,2.462.936,4.82,4.82,0,0,0,1.414-.2,4.755,4.755,0,0,0,1.339-.637Z" transform="translate(-1.903 -13.09)" fill="#343434"></path>
        <path id="Pfad_4775" data-name="Pfad 4775" d="M37.68,64.2h1.292V60.452a2.537,2.537,0,0,1,.59-1.236,1.168,1.168,0,0,1,.936-.431,1.442,1.442,0,0,1,.627.122,2.49,2.49,0,0,1,.59.393l.711-1.123a5,5,0,0,0-.767-.478,1.872,1.872,0,0,0-.721-.15,1.414,1.414,0,0,0-1,.384A4.905,4.905,0,0,0,39,59.057V57.69H37.68Z" transform="translate(-2.405 -13.091)" fill="#343434"></path>
        <path id="Pfad_4776" data-name="Pfad 4776" d="M43.36,64.2h1.292V59.516a2.483,2.483,0,0,1,.73-.627,1.938,1.938,0,0,1,.889-.206,1.339,1.339,0,0,1,1.039.384,1.807,1.807,0,0,1,.328,1.133v3.979H48.93V59.5a2.483,2.483,0,0,1,.73-.627,2.012,2.012,0,0,1,.936-.206,1.32,1.32,0,0,1,1.03.384,1.807,1.807,0,0,1,.328,1.133v3.977h1.3V59.842a2.247,2.247,0,0,0-.608-1.685,2.35,2.35,0,0,0-1.676-.608,2.453,2.453,0,0,0-1.123.272,4.325,4.325,0,0,0-1.133.833,1.994,1.994,0,0,0-.8-.843,2.659,2.659,0,0,0-1.2-.262,2.5,2.5,0,0,0-1.039.225,3.51,3.51,0,0,0-.936.674V57.69H43.426Z" transform="translate(-2.768 -13.091)" fill="#343434"></path>
        <path id="Pfad_4777" data-name="Pfad 4777" d="M58.674,63.654a.674.674,0,0,0,.215.5.8.8,0,0,0,.562.159,1.873,1.873,0,0,0,.74-.15,2.546,2.546,0,0,0,.711-.449v-.786a3.153,3.153,0,0,1-.356.262.637.637,0,0,1-.318.1.219.219,0,0,1-.206-.159,1.4,1.4,0,0,1-.056-.478V59.9a2.34,2.34,0,0,0-.552-1.769,2.424,2.424,0,0,0-1.872-.562,4.1,4.1,0,0,0-1.3.2,3.745,3.745,0,0,0-1.133.618v1.292a5.039,5.039,0,0,1,1.133-.693,3.286,3.286,0,0,1,1.123-.225,1.387,1.387,0,0,1,.936.262,1.011,1.011,0,0,1,.292.833,1.406,1.406,0,0,1,0,.281l-1.544.515c-1.423.478-2.144,1.123-2.144,2.088a1.461,1.461,0,0,0,.478,1.123,2.078,2.078,0,0,0,1.376.431,2.893,2.893,0,0,0,.936-.159,3.9,3.9,0,0,0,.932-.5Zm0-.786a2.144,2.144,0,0,1-1.329.487,1.049,1.049,0,0,1-.721-.215.786.786,0,0,1-.262-.618,1.03,1.03,0,0,1,.581-.861,7.49,7.49,0,0,1,1.732-.693Z" transform="translate(-3.505 -13.091)" fill="#343434"></path>
        <path id="Pfad_4778" data-name="Pfad 4778" d="M62.11,64.2H63.4V59.516a2.483,2.483,0,0,1,.73-.627,1.872,1.872,0,0,1,.88-.206,1.32,1.32,0,0,1,1.03.384,1.769,1.769,0,0,1,.346,1.133v3.979H67.68V59.844a2.247,2.247,0,0,0-.608-1.685A2.313,2.313,0,0,0,65.4,57.55a2.509,2.509,0,0,0-1.049.225,3.314,3.314,0,0,0-.936.674V57.69H62.11Z" transform="translate(-3.964 -13.091)" fill="#343434"></path>
        <path id="Pfad_4779" data-name="Pfad 4779" d="M71.333,60.734l-2.247,4.55h1.4l4.831-9.774h-1.4l-1.882,3.8-2-3.8H68.59Z" transform="translate(-4.378 -10.911)" fill="#343434"></path>
      </g>
    </g>
  </g>
</svg>
